<?xml version="1.0" encoding="UTF-8" standalone="no"?>
<svg
   xmlns:dc="http://purl.org/dc/elements/1.1/"
   xmlns:cc="http://creativecommons.org/ns#"
   xmlns:rdf="http://www.w3.org/1999/02/22-rdf-syntax-ns#"
   xmlns:svg="http://www.w3.org/2000/svg"
   xmlns="http://www.w3.org/2000/svg"
   xmlns:sodipodi="http://sodipodi.sourceforge.net/DTD/sodipodi-0.dtd"
   xmlns:inkscape="http://www.inkscape.org/namespaces/inkscape"
   width="1000"
   height="389"
   viewBox="0 0 1000 389"
   version="1.1"
   id="svg4530"
   sodipodi:docname="Pixiv_logo.svg"
   inkscape:version="0.92.4 (5da689c313, 2019-01-14)">
  <metadata
     id="metadata4536">
    <rdf:RDF>
      <cc:Work
         rdf:about="">
        <dc:format>image/svg+xml</dc:format>
        <dc:type
           rdf:resource="http://purl.org/dc/dcmitype/StillImage" />
        <dc:title></dc:title>
      </cc:Work>
    </rdf:RDF>
  </metadata>
  <defs
     id="defs4534" />
  <sodipodi:namedview
     pagecolor="#ffffff"
     bordercolor="#666666"
     borderopacity="1"
     objecttolerance="10"
     gridtolerance="10"
     guidetolerance="10"
     inkscape:pageopacity="0"
     inkscape:pageshadow="2"
     inkscape:window-width="1920"
     inkscape:window-height="1017"
     id="namedview4532"
     showgrid="false"
     inkscape:zoom="0.35355339"
     inkscape:cx="-8.2264427"
     inkscape:cy="278.25954"
     inkscape:window-x="-8"
     inkscape:window-y="-8"
     inkscape:window-maximized="1"
     inkscape:current-layer="svg4530" />
  <path
     d="M 287.45993,129.79901 C 261.68176,107.43201 225.60343,94.5207 183.6639,94.5207 74.345569,94.52625 -9.8479582e-6,178.32753 -9.8479582e-6,178.32753 L 20.944754,211.35581 c 0,0 11.600177,0.96669 5.461195,-18.48917 5.300081,-9.94459 15.666906,-23.33369 35.92277,-38.77837 v 220.00336 c -8.733466,2.44448 -20.278087,7.04455 -12.4113,14.86134 h 60.195361 c 7.94457,-7.88901 -4.57229,-12.64464 -12.194628,-14.86134 v -51.90079 c 0,0 41.261738,16.08913 85.745748,16.08913 39.07838,0 74.64003,-11.55573 101.09044,-32.41716 26.44485,-20.7392 43.50066,-51.7119 43.38955,-87.11244 0.0778,-34.76164 -14.90023,-66.66768 -40.68951,-88.9458 z m -31.90048,158.69687 c -18.28917,17.93361 -44.88958,29.27823 -75.56782,29.256 -34.23386,0.0167 -63.04541,-6.56676 -82.073478,-15.87246 V 136.8269 c 20.878098,-14.73912 54.734168,-23.81703 82.073478,-23.76148 33.22273,0.0278 59.3009,12.5002 76.94562,31.4116 17.60026,19.03362 27.21152,44.31734 27.30041,73.70668 -0.11111,28.63377 -10.38904,52.22302 -28.67821,70.30662 z M 381.3947,94.52625 h -12.2613 c -5.44452,0 -9.8557,4.38896 -9.8557,9.7946 v 224.99232 c 0,5.40564 4.40562,9.79459 9.85015,9.79459 h 12.25574 c 5.43342,0 9.85015,-4.37784 9.85015,-9.78903 V 104.31529 c 0,-5.40008 -4.41673,-9.78904 -9.85571,-9.78904 z m 320.33823,0 h -12.25575 c -5.44453,0 -9.8557,4.38896 -9.8557,9.7946 v 224.99232 c 0,5.40564 4.40562,9.79459 9.8557,9.79459 h 12.25575 c 5.44452,0 9.8557,-4.37784 9.8557,-9.78903 V 104.31529 c 0,-5.40008 -4.42229,-9.78904 -9.8557,-9.78904 z m 288.18217,0 h -11.40573 c -8.9668,0 -11.44462,1.15002 -15.47246,9.18903 -4.02228,8.00012 -92.77919,182.8139 -92.77919,182.8139 0,0 -88.77913,-174.81378 -92.77919,-182.8139 -4.04451,-8.03901 -6.51677,-9.18903 -15.47802,-9.18903 h -11.41128 c -8.38902,0 -12.92242,3.70562 -8.19457,13.14465 4.74451,9.44459 114.05729,222.71451 114.05729,222.71451 2.87227,5.40008 8.12791,8.72235 13.81133,8.72235 5.66675,0 10.91683,-3.32227 13.79465,-8.72235 0.18334,-0.3889 109.31278,-213.28103 114.02952,-222.71451 4.72235,-9.44459 0.21111,-13.14465 -8.18346,-13.14465 z M 604.93145,330.94097 c 4.6334,5.85565 7.95567,8.16679 16.91137,8.16679 h 18.37805 c 11.56685,0 7.50012,-5.2223 4.22229,-9.50014 -8.16679,-10.70572 -88.72358,-112.50172 -88.72358,-112.50172 0,0 83.45683,-102.36267 91.62918,-113.07395 3.27783,-4.27784 7.35011,-9.50014 -4.22229,-9.50014 h -18.3725 c -8.96125,0 -12.28907,2.30559 -16.91692,8.1779 -4.6223,5.85009 -72.44555,88.72358 -72.44555,88.72358 0,0 -67.88437,-82.86238 -72.51222,-88.71802 -4.62785,-5.87787 -7.95568,-8.18902 -16.91137,-8.18902 h -18.37806 c -11.55573,0 -7.50011,5.2223 -4.22229,9.50015 8.1668,10.72238 91.68474,113.08506 91.68474,113.08506 0,0 -82.99016,101.796 -91.15695,112.49616 -3.27783,4.27784 -7.34456,9.50014 4.22229,9.50014 h 18.37806 c 8.96124,0 12.27796,-2.31114 16.91692,-8.16679 4.62229,-5.87231 71.96777,-88.17912 71.96777,-88.17912 L 604.937,330.92986 Z M 375.22794,0.04703 c -7.31678,0 -13.4002,2.42226 -18.27806,7.26122 -4.86118,4.83341 -7.30011,10.88906 -7.30011,18.15584 0,7.25566 2.44448,13.31131 7.30567,18.15027 4.87785,4.83341 10.96128,7.26123 18.27806,7.26123 7.30011,0 13.38909,-2.42782 18.25583,-7.26678 4.8723,-4.83341 7.31122,-10.88906 7.31122,-18.15028 0,-7.26122 -2.44448,-13.31687 -7.31122,-18.15583 -4.8723,-4.82785 -10.96128,-7.25567 -18.26139,-7.25567 z m 320.33822,0 c -7.30011,0 -13.38909,2.42226 -18.25027,7.26122 -4.87786,4.83341 -7.31123,10.88906 -7.31123,18.15584 0,7.25566 2.42782,13.31131 7.30567,18.15027 4.86674,4.83341 10.94461,7.26123 18.25583,7.26123 7.31678,0 13.40021,-2.42782 18.27806,-7.26678 4.86119,-4.83341 7.30011,-10.88906 7.30011,-18.15028 0,-7.26122 -2.44448,-13.31687 -7.30011,-18.15583 -4.87785,-4.82785 -10.96128,-7.25567 -18.27806,-7.25567 z"
     id="path4528"
     inkscape:connector-curvature="0"
     style="fill:#009cff;fill-rule:evenodd;stroke-width:5.55564022" />
</svg>
