<?xml version="1.0" standalone="no"?><!DOCTYPE svg PUBLIC "-//W3C//DTD SVG 1.1//EN" "http://www.w3.org/Graphics/SVG/1.1/DTD/svg11.dtd"><svg t="1702261964148" class="icon" viewBox="0 0 1072 1024" version="1.1" xmlns="http://www.w3.org/2000/svg" p-id="9749" xmlns:xlink="http://www.w3.org/1999/xlink" width="209.375" height="200"><path d="M131.825115 595.186928h67.2919q-5.159805 48.77021 31.052646 52.013516 36.185647-3.2031 46.585669-52.013516 5.186609-58.526933-67.2919-58.526933L216.365507 487.836177q74.180575 0 79.380587-52.013517 5.159805-45.486698-31.066048-48.77021-34.537189 6.553623-43.12793 48.77021h-67.2919q15.519622-94.27031 115.593037-97.54042 94.886806 9.756722 93.184741 87.783698-12.061882 68.270253-69.02077 84.52699 55.203214 22.783555 48.247529 94.283712-20.706231 81.310488-119.064179 87.783698-105.206417 0.053608-91.375459-97.47341zM616.672572 429.362852h-65.563031c2.291758-15.130961 1.125776-26.000057-3.457739-32.513473-5.762899-6.500014-13.790752-9.74332-24.123765-9.74332q-43.141332 3.283512-55.216616 104.040434 18.977361-25.986655 56.945486-26.013459 89.700197 9.756722 84.540392 107.297143-10.346414 52.026918-37.954722 84.52699-37.968125 35.82379-91.455872 35.756779-108.704363 0-89.713599-146.297228Q413.041197 335.052336 537.305387 338.335848q89.700197 3.283512 79.367185 91.027004z m-77.638315 152.783841q5.159805-64.986741-34.510385-65.026947-37.981527 3.27011-48.314539 65.026947-6.915479 61.797043 32.781515 65.026947 37.94132-3.162894 50.043409-65.000143zM849.614321 517.14655q-24.123764 172.3911-131.139464 175.567396-103.531155-3.2031-84.540392-175.567396 24.123764-175.567396 127.681724-178.810702Q868.511269 341.619361 849.614321 517.14655z m-69.02077 0q17.235089-126.797186-22.435101-130.000285-41.412462 3.283512-56.932084 130.000285-17.261894 126.810588 24.123764 130.000286 39.710397-3.136089 55.243421-130.000286zM1032.512661 403.403002q-13.830958 68.270253-75.922848 74.770267-58.687758-6.47321-56.945485-74.770267 15.546426-68.350666 75.922847-74.78367 60.376421 6.513416 56.945486 74.78367z m-93.56-0.388661q-2.680418 27.420679 22.461905 29.873261Q986.449673 430.408216 993.150719 402.974135q-1.340209-27.36707-23.788713-32.366051-27.769133 5.025784-30.409345 32.366051z" p-id="9750" fill="#ffffff"></path><path d="M1070.239548 739.138791l-55.042389-155.906528v-0.093815l-0.147423-0.415465c-0.281444-0.804125-0.589692-1.581447-0.938147-2.345366-0.093815-0.227836-0.201031-0.442269-0.294846-0.670104-0.388661-0.817528-0.790723-1.621653-1.21959-2.398975l-0.120619-0.214433c-0.482475-0.857734-1.018559-1.675261-1.568045-2.465985l-0.361856-0.522682c-0.562888-0.790723-1.15258-1.554643-1.782478-2.278355-0.093815-0.120619-0.201031-0.227836-0.294846-0.335052-0.562888-0.6433-1.139178-1.259797-1.742272-1.849489l-0.495877-0.482475c-0.656702-0.629898-1.340209-1.21959-2.037118-1.782478l-0.710311-0.562888c-0.629898-0.482475-1.273199-0.938146-1.929901-1.340209l-0.777322-0.495878c-0.670105-0.415465-1.340209-0.790723-2.023715-1.165982l-0.857734-0.442269c-0.804125-0.402063-1.635055-0.777321-2.465985-1.112373l-0.763919-0.294846c-0.83093-0.308248-1.675261-0.603094-2.532995-0.844332l-0.361857-0.107217c-0.991755-0.268042-1.970107-0.482475-2.961862-0.656702a3.27011 3.27011 0 0 0-0.348454-0.080413h-0.268042c-0.991755-0.160825-1.98351-0.281444-2.988667-0.361856h-0.683506c-0.884538 0-1.782478-0.06701-2.680419 0h-0.763919c-0.817528 0-1.621653 0.107217-2.43918 0.187629l-1.005157 0.134021c-0.857734 0.120619-1.688664 0.268042-2.532995 0.455671-0.335052 0-0.656702 0.160825-0.991755 0.241238-0.683507 0.174227-1.340209 0.361856-2.05052 0.589692l-0.750517 0.227835c-0.844332 0.294846-1.661859 0.616496-2.479387 0.964951l-0.790724 0.361856c-0.83093 0.388661-1.648457 0.790723-2.452582 1.246395l-0.482476 0.281444c-0.696909 0.415465-1.340209 0.857734-2.063922 1.340209l-0.589692 0.388661c-0.656702 0.469073-1.340209 0.964951-1.929901 1.47423l-139.006491 114.815716A34.523787 34.523787 0 1 0 865.536005 735.774866l50.75372-42.002154A442.000971 442.000971 0 0 1 512.015641 954.939265c-244.239712 0-442.939117-198.712808-442.939117-442.95252S267.802733 69.047628 512.015641 69.047628c155.209619 0 301.077981 82.905337 380.699805 216.363362a34.523787 34.523787 0 1 0 59.290852-35.381521A511.71865 511.71865 0 0 0 512.015641 0.000054a511.959888 511.959888 0 0 0-362.003888 874.017384 511.959888 511.959888 0 0 0 693.357193 28.318618 513.997005 513.997005 0 0 0 142.236395-195.549914l19.60726 55.350637a34.523787 34.523787 0 1 0 65.093957-22.997988z" p-id="9751" fill="#ffffff"></path></svg>