<?xml version="1.0" standalone="no"?><!DOCTYPE svg PUBLIC "-//W3C//DTD SVG 1.1//EN" "http://www.w3.org/Graphics/SVG/1.1/DTD/svg11.dtd"><svg t="1702262471989" class="icon" viewBox="0 0 1024 1024" version="1.1" xmlns="http://www.w3.org/2000/svg" p-id="6533" xmlns:xlink="http://www.w3.org/1999/xlink" width="200" height="200"><path d="M183.9872 770.6368l22.4512-15.0016V293.1712h86.7072V206.4896H206.4384V33.0752H119.7568v173.4144H33.0752v86.7328h86.6816v496.6656L0 825.8048l66.0736 99.072 280.7552-148.6592-16.512-49.5616-146.3296 43.9808z m831.7696 129.536h-231.2192V668.928h202.2912v-57.8304h-202.2912v-173.4144h173.3888v-57.8048h-173.3888V177.5616h202.2912V119.7824h-202.2912V4.1728l-86.7072 28.9024v86.7072h-202.3168V0h-33.024l-132.1728 198.2208v165.1456l16.512-16.512 90.8544-131.2256v800.1024h57.8048v-57.8304H1024l-8.2432-57.728z m-317.9264 0h-202.3168V668.928h202.3168v231.2448z m0-289.0752h-202.3168v-173.4144h202.3168v173.4144z m0-231.2192h-202.3168V177.5616h202.3168v202.3168z" fill="#ffffff" p-id="6534"></path></svg>