<?xml version="1.0" standalone="no"?><!DOCTYPE svg PUBLIC "-//W3C//DTD SVG 1.1//EN" "http://www.w3.org/Graphics/SVG/1.1/DTD/svg11.dtd"><svg t="1702261925229" class="icon" viewBox="0 0 1024 1024" version="1.1" xmlns="http://www.w3.org/2000/svg" p-id="5406" xmlns:xlink="http://www.w3.org/1999/xlink" width="200" height="200"><path d="M562.176 627.285333c-18.346667 4.949333-37.12 7.936-56.149333 8.96-49.664 3.413333-99.669333-3.882667-147.626667-16.682666-34.986667-9.514667-69.12-22.016-101.973333-37.333334 1.92 30.421333 3.498667 60.8 5.504 91.221334 18.432 7.893333 37.418667 14.464 56.448 20.693333 53.845333 17.578667 109.269333 30.677333 165.888 36.693333 37.76 3.84 75.776 4.096 113.493333 0.853334 34.944-3.072 69.973333-9.557333 102.528-22.912 27.050667-11.264 52.949333-28.16 68.778667-52.949334a97.706667 97.706667 0 0 0 2.048-100.181333 126.293333 126.293333 0 0 0-29.525334-33.92 255.786667 255.786667 0 0 0-60.16-35.072c-44.928-19.114667-92.757333-30.549333-140.288-41.813333-23.594667-5.76-47.786667-10.538667-69.205333-21.930667-9.813333-5.205333-19.584-11.690667-25.514667-21.248-3.754667-6.186667-5.333333-14.208-2.048-20.949333 4.181333-9.088 13.269333-14.762667 22.357334-18.56 17.109333-6.912 35.968-8.32 54.272-8.021334 46.933333 0.682667 93.44 8.106667 138.965333 18.730667 37.418667 8.96 74.410667 19.968 110.122667 34.048-1.621333-29.653333-3.456-59.221333-5.034667-88.917333-18.858667-6.485333-37.973333-12.245333-57.301333-17.28a1207.552 1207.552 0 0 0-141.952-28.16c-46.08-5.674667-92.586667-9.728-138.965334-5.76A313.514667 313.514667 0 0 0 341.333333 285.013333c-23.338667 9.002667-45.653333 21.802667-63.146666 39.68-17.493333 17.450667-29.013333 39.850667-32.768 64-2.432 16.384-1.877333 33.493333 4.906666 48.853334 8.192 18.730667 23.637333 33.365333 40.448 44.586666 31.402667 20.821333 67.712 32.853333 103.68 43.221334 34.261333 9.557333 69.077333 16.64 103.936 23.765333 16.426667 3.413333 32.426667 8.32 48.128 13.696 13.098667 5.248 26.197333 10.837333 37.290667 19.712 5.205333 4.394667 10.112 9.557333 11.392 16.213333a16.725333 16.725333 0 0 1-5.888 15.018667c-7.509333 6.912-17.493333 10.581333-27.136 13.482667zM593.024 853.333333c-26.197333 5.76-53.418667 8.576-80.64 8.576a371.285333 371.285333 0 0 1-260.352-105.386666 353.92 353.92 0 0 1-44.928-53.333334 352.938667 352.938667 0 0 1 0-402.218666 385.706667 385.706667 0 0 1 44.928-53.333334A372.906667 372.906667 0 0 1 369.066667 170.538667a373.845333 373.845333 0 0 1 143.274666-28.288 371.285333 371.285333 0 0 1 260.394667 105.386666 367.530667 367.530667 0 0 1 78.933333 114.389334 353.792 353.792 0 0 1-58.794666 373.205333l44.629333 36.181333c107.306667-123.818667 131.285333-297.216 61.44-444.416-69.802667-147.2-220.714667-241.408-386.688-241.365333-113.066667 0-221.44 43.861333-301.397333 121.984a411.818667 411.818667 0 0 0-124.842667 294.570667c0 139.861333 71.765333 270.378667 191.104 347.52a434.645333 434.645333 0 0 0 402.005333 35.84l-27.221333-50.346667c-19.114667 7.509333-38.826667 13.568-58.922667 18.090667z m223.317333-54.442666a429.653333 429.653333 0 0 1-135.338666 89.514666l27.392 50.218667a490.581333 490.581333 0 0 0 176.682666-129.194667l-44.629333-36.138666c-7.68 8.874667-15.786667 17.450667-24.106667 25.6z" fill="#ffffff" p-id="5407"></path></svg>