<?xml version="1.0" standalone="no"?><!DOCTYPE svg PUBLIC "-//W3C//DTD SVG 1.1//EN" "http://www.w3.org/Graphics/SVG/1.1/DTD/svg11.dtd"><svg t="1702262457391" class="icon" viewBox="0 0 1069 1024" version="1.1" xmlns="http://www.w3.org/2000/svg" p-id="5351" xmlns:xlink="http://www.w3.org/1999/xlink" width="208.7890625" height="200"><path d="M290.065265 353.268196a471.530228 471.530228 0 0 1 277.19022-306.852642A1188.54257 1188.54257 0 0 0 312.567792 0.387657 1502.555108 1502.555108 0 0 0 41.514624 18.798816s-38.868001 425.502331 204.568428 715.9895l8.182738 9.205579a1141.491831 1141.491831 0 0 1 32.730948-387.657172zM1064.356767 723.537052a1575.1769 1575.1769 0 0 0-45.005055-240.367903 498.124123 498.124123 0 0 1-278.213063 257.756219 1147.628884 1147.628884 0 0 1-418.342436 64.439055C610.214855 1048.800853 1044.922766 1023.2298 1044.922766 1023.2298A1392.088156 1392.088156 0 0 0 1064.356767 723.537052z m-775.314345 37.845159S655.219909 818.661371 882.290865 598.750311 1044.922766 18.798816 1044.922766 18.798816 655.219909-33.366134 450.651481 168.133769s-163.654743 593.248443-163.654743 593.248442z" fill="#ffffff" p-id="5352"></path></svg>